<?xml version="1.0" encoding="iso-8859-1"?>
<!-- Generator: Adobe Illustrator 19.0.0, SVG Export Plug-In . SVG Version: 6.00 Build 0)  -->
<svg version="1.1" id="Layer_1" xmlns="http://www.w3.org/2000/svg" xmlns:xlink="http://www.w3.org/1999/xlink" x="0px" y="0px"
	 viewBox="0 0 512 512" style="enable-background:new 0 0 512 512;" xml:space="preserve">
<rect x="230.42" y="258.431" style="fill:#999999;" width="51.172" height="253.569"/>
<path style="fill:#808080;" d="M265.934,258.431c0.962,0.573,1.888,1.243,2.741,1.986c3.399,2.973-28.754,2.973-25.342,0.012
	c0.853-0.743,1.779-1.413,2.741-1.998h-15.656v75.296l8.894-5.093l6.969-22.406h0.012c3.156,0.975,6.421,1.474,9.71,1.474
	c3.29,0,6.555-0.5,9.71-1.474h0.012l6.969,22.406l8.894,5.093v-75.296H265.934z"/>
<path style="fill:#666666;" d="M281.663,255.251c0.219,1.365,0.341,2.778,0.341,4.203c0,11.672-7.676,21.541-18.264,24.831
	c-2.449,0.755-5.044,1.17-7.737,1.17c-2.693,0-5.288-0.414-7.737-1.17c-10.588-3.29-18.276-13.159-18.276-24.831
	c0-1.426,0.122-2.839,0.341-4.203h0.012c0.975-6.128,4.106-11.526,8.59-15.425c4.569-3.972,10.527-6.384,17.07-6.384
	s12.501,2.412,17.07,6.384C277.545,243.725,280.677,249.134,281.663,255.251z"/>
<g>
	<path style="fill:#80D2EE;" d="M248.268,284.285v0.012l-8.955,28.79L76.488,406.269c-4.788,2.741-10.015,4.045-15.181,4.045
		c-10.271,0-20.286-5.178-26.061-14.523c-8.675-14.048-4.642-32.433,9.101-41.571L200.58,250.365l29.753,4.886
		c-0.219,1.365-0.341,2.778-0.341,4.203C229.992,271.126,237.68,280.995,248.268,284.285z"/>
	<path style="fill:#80D2EE;" d="M467.661,354.22c13.743,9.138,17.764,27.523,9.089,41.571c-5.775,9.345-15.79,14.523-26.061,14.523
		c-5.166,0-10.393-1.304-15.181-4.045l-162.812-93.182l-8.955-28.79v-0.012c10.588-3.29,18.264-13.159,18.264-24.831
		c0-1.426-0.122-2.839-0.341-4.203h0.012l29.765-4.886L467.661,354.22z"/>
	<path style="fill:#80D2EE;" d="M286.598,29.582l6.275,187.484l-19.799,22.759c-4.569-3.972-10.527-6.384-17.07-6.384
		c-6.543,0-12.501,2.412-17.069,6.384l-19.786-22.759l6.262-187.484C225.971,13.085,239.495,0,256.004,0
		c8.261,0,15.766,3.265,21.285,8.602S286.318,21.334,286.598,29.582z"/>
</g>
<path style="fill:#999999;" d="M256.004,292.155c-3.286,0-6.552-0.493-9.71-1.467c-13.764-4.276-23.003-16.827-23.003-31.234
	c0-1.735,0.144-3.508,0.426-5.267c0.023-0.145,0.051-0.288,0.083-0.429c1.272-7.335,5.073-14.063,10.738-18.988
	c5.957-5.178,13.58-8.028,21.467-8.028c7.887,0,15.51,2.851,21.465,8.028c5.763,5.025,9.6,11.917,10.809,19.415
	c0.283,1.761,0.426,3.532,0.426,5.271c0,14.41-9.233,26.96-22.976,31.231c-0.005,0.001-0.01,0.002-0.015,0.004
	C262.557,291.662,259.289,292.155,256.004,292.155z M236.896,256.657c-0.135,0.943-0.205,1.882-0.205,2.797
	c0,8.503,5.451,15.911,13.563,18.432c3.725,1.149,7.751,1.154,11.506-0.002c8.1-2.521,13.541-9.926,13.541-18.429
	c0-1.027-0.087-2.083-0.256-3.139c-0.712-4.409-2.977-8.474-6.377-11.438c-3.509-3.05-8.01-4.733-12.666-4.733
	c-4.657,0-9.156,1.684-12.672,4.741c-3.405,2.962-5.668,7.018-6.368,11.421C236.943,256.423,236.922,256.54,236.896,256.657z"/>
<g>
	<path style="fill:#E6E6E6;" d="M435.594,301.803c-0.375,0-0.755-0.039-1.138-0.119c-2.963-0.625-4.858-3.533-4.233-6.496
		c2.516-11.926,3.793-24.243,3.793-36.614c0-37.232-11.367-72.884-32.874-103.101c-21.048-29.571-50.113-51.751-84.056-64.138
		c-2.844-1.038-4.308-4.186-3.27-7.03c1.038-2.844,4.184-4.308,7.03-3.27c36.036,13.152,66.89,36.694,89.231,68.081
		c22.836,32.085,34.907,69.935,34.907,109.459c0,13.128-1.356,26.209-4.029,38.877C440.409,300.031,438.13,301.803,435.594,301.803z
		"/>
	<path style="fill:#E6E6E6;" d="M303.171,441.403c-2.427,0-4.646-1.623-5.296-4.08c-0.775-2.927,0.969-5.929,3.896-6.704
		c23.247-6.159,44.687-16.828,63.723-31.708c2.386-1.864,5.831-1.443,7.696,0.943c1.865,2.386,1.443,5.831-0.943,7.697
		c-20.212,15.799-42.978,27.127-67.668,33.669C304.11,441.344,303.637,441.403,303.171,441.403z"/>
	<path style="fill:#E6E6E6;" d="M208.84,441.416c-0.464,0-0.937-0.06-1.407-0.184c-24.686-6.541-47.457-17.872-67.68-33.682
		c-2.386-1.865-2.808-5.311-0.943-7.696c1.864-2.386,5.31-2.808,7.697-0.943c19.048,14.89,40.492,25.562,63.735,31.721
		c2.927,0.776,4.671,3.777,3.896,6.704C213.485,439.793,211.267,441.416,208.84,441.416z"/>
	<path style="fill:#E6E6E6;" d="M76.41,301.807c-2.707,0-4.955-1.957-5.402-4.535c-2.649-12.615-3.991-25.635-3.991-38.699
		c0-39.524,12.073-77.377,34.913-109.464c22.344-31.389,53.202-54.929,89.238-68.076c2.845-1.037,5.992,0.428,7.03,3.271
		c1.038,2.845-0.428,5.992-3.273,7.03c-33.942,12.382-63.01,34.559-84.062,64.133c-21.51,30.219-32.88,65.873-32.88,103.105
		c0,12.367,1.276,24.686,3.793,36.614c0.078,0.373,0.118,0.752,0.118,1.132C81.893,299.346,79.439,301.807,76.41,301.807z"/>
</g>
<g>
</g>
<g>
</g>
<g>
</g>
<g>
</g>
<g>
</g>
<g>
</g>
<g>
</g>
<g>
</g>
<g>
</g>
<g>
</g>
<g>
</g>
<g>
</g>
<g>
</g>
<g>
</g>
<g>
</g>
</svg>
